<svg id="Layer_1" data-name="Layer 1" xmlns="http://www.w3.org/2000/svg" viewBox="0 0 505.48 505.1">
  <defs>
    <style>
      .cls-1 {
        fill: #fff;
      }

      .cls-2 {
        fill: #eb650a;
      }

      .cls-3 {
        fill: #686868;
      }
    </style>
  </defs>
  <title>Androidappicon</title>
  <g>
    <path class="cls-1" d="M262.29,3.52H508.21v505.1H262.29a4.73,4.73,0,0,1,2.23-.28,242.23,242.23,0,0,0,42.94-5.13,250.49,250.49,0,0,0,102.72-47.46,1.55,1.55,0,0,0,.83-1.11H408.6q-59.21,0-118.39,0c-9.54,0-19.07-.06-28.6.33a183.14,183.14,0,0,1-43.69-3.53A190.89,190.89,0,0,1,128,406.94c-13.33-11.68-24.66-25.19-35.08-39.42C70.36,336.7,58.35,302.06,56.72,263.89A182.21,182.21,0,0,1,59,226.72a187.57,187.57,0,0,1,19.85-58.57c3.74-7,8.23-13.58,12.4-20.33a188.48,188.48,0,0,1,30.86-38.32q52.82-49.87,125.44-52.79a181.5,181.5,0,0,1,47.32,4.43,188.82,188.82,0,0,1,92.27,50.31c5.59,5.47,10.64,11.42,15.9,17.19,30.77,33.69,47.73,73.27,50.29,118.88a179.35,179.35,0,0,1-2.88,43.32,187.67,187.67,0,0,1-31,73.69c-4.67,6.69-9.86,13-14.84,19.44-.36.46-.95.81-.91,1.5.26.38.63.25,1,.24,5.11,0,10.22-.1,15.33-.13l23.64-.06c9.05,0,18.11-.06,27.16,0a2.61,2.61,0,0,0,2.62-1.46,249.49,249.49,0,0,0,34.25-112.89,272.39,272.39,0,0,0-.18-32.95,234.41,234.41,0,0,0-5.17-36.26c-11.06-49.41-34.55-92-71-127.09-46.32-44.54-101.88-68-166.1-71A7.9,7.9,0,0,1,262.29,3.52ZM276.86,208h-73.4a47,47,0,0,0-8.85.84,30.26,30.26,0,0,0-24,28.92c0,4.49,0,9,0,13.48s.09,9,0,13.47.37,8.85-.16,13.29a61.84,61.84,0,0,0,0,7.46,30.76,30.76,0,0,0,3.4,14.38c6.22,11.69,16,17.79,29.25,18.06,6.36.14,12.72,0,19.08,0h87.28c2.45,0,2.22-.2,2.22,2.24q0,10.77,0,21.56c0,3.21.48,2.88-2.84,2.88H172.94c-.62,0-1.24,0-1.87,0s-1,.34-1,1c0,.41,0,.83,0,1.24q0,18.34,0,36.7c0,2.48,0,2.21,2.27,2.21H318.74a32.58,32.58,0,0,0,7.8-.94,34,34,0,0,0,26.15-33.17q.07-17.52,0-35c0-4.28.24-8.58-.58-12.82a34.39,34.39,0,0,0-33.87-27.9c-34.63.17-69.25.05-103.87.05h-1.87c-.61,0-.86-.3-.85-.89s0-1,0-1.45c0-7.12,0-14.24,0-21.36,0-3.2-.42-2.76,2.71-2.76H350.81c3,0,2.6.34,2.6-2.68q0-18.15,0-36.28c0-2.9.29-2.54-2.54-2.54ZM158.38,107.07a.9.9,0,0,0,.38.83l18.76,18.77c.15.14.3.28.44.43a.75.75,0,0,0,1.1.08c.34-.24.71-.44,1.06-.66A144.23,144.23,0,0,1,247.05,105a146.27,146.27,0,0,1,85,20.62c2,1.2,1.5,1.37,3.37-.49q7.86-7.83,15.69-15.68c2-2,2-2-.5-3.42a189.82,189.82,0,0,0-136-21.65,184.27,184.27,0,0,0-50,18.78A59.94,59.94,0,0,0,158.38,107.07ZM190,138.94a5.14,5.14,0,0,0,1.35,1.55q6.58,6.6,13.18,13.19c1.27,1.27,2.56,2.52,3.8,3.82.56.59,1.07.81,1.78.3a5.63,5.63,0,0,1,.73-.39,102.38,102.38,0,0,1,58-10.7,99.76,99.76,0,0,1,33.1,9.36c1.72.82,1.74.82,3-.42q8.28-8.28,16.55-16.57c.31-.31.81-.53.74-1.1C279.63,112.71,226.36,115.68,190,138.94Zm30.9,30.89a7.21,7.21,0,0,0,.61.82c5.37,5.38,10.76,10.74,16.1,16.15a1.84,1.84,0,0,0,2.2.42c10.69-3.28,21.51-3.27,32.37-1.12a3.1,3.1,0,0,0,3.27-.91c5-5.13,10.14-10.18,15.21-15.28.37-.37.91-.63,1-1.43a87.28,87.28,0,0,0-70.74,1.35Zm-71.08-57.15a14.15,14.15,0,0,0-3.06,1.94.5.5,0,0,0-.13.72.52.52,0,0,0,.73,0A12.86,12.86,0,0,0,149.83,112.68Z" transform="translate(-2.72 -3.52)"/>
    <path class="cls-2" d="M262.29,3.52a7.9,7.9,0,0,0,2.86.32c64.22,2.94,119.78,26.45,166.1,71,36.49,35.08,60,77.68,71,127.09a234.41,234.41,0,0,1,5.17,36.26,272.39,272.39,0,0,1,.18,32.95A249.49,249.49,0,0,1,473.39,384a2.61,2.61,0,0,1-2.62,1.46c-9,0-18.11,0-27.16,0l-23.64.06c-5.11,0-10.22.09-15.33.13-.33,0-.7.14-1-.24,0-.69.55-1,.91-1.5,5-6.45,10.17-12.75,14.84-19.44a187.67,187.67,0,0,0,31-73.69,179.35,179.35,0,0,0,2.88-43.32c-2.56-45.61-19.52-85.19-50.29-118.88-5.26-5.77-10.31-11.72-15.9-17.19a188.82,188.82,0,0,0-92.27-50.31,181.5,181.5,0,0,0-47.32-4.43Q175,59.63,122.12,109.5a188.48,188.48,0,0,0-30.86,38.32c-4.17,6.75-8.66,13.31-12.4,20.33A187.57,187.57,0,0,0,59,226.72a182.21,182.21,0,0,0-2.29,37.17c1.63,38.17,13.64,72.81,36.22,103.63,10.42,14.23,21.75,27.74,35.08,39.42a190.89,190.89,0,0,0,89.9,44.52A183.14,183.14,0,0,0,261.61,455c9.53-.39,19.06-.32,28.6-.33q59.19-.06,118.39,0H411a1.55,1.55,0,0,1-.83,1.11,250.49,250.49,0,0,1-102.72,47.46,242.23,242.23,0,0,1-42.94,5.13,4.73,4.73,0,0,0-2.23.28H249a7.86,7.86,0,0,0-3.05-.3A251.59,251.59,0,0,1,60,415.55C22.86,369.6,4.1,316.92,3.25,257.86a257.78,257.78,0,0,1,6.19-57.54c11.19-48.53,34.41-90.45,70.21-125C126,30.49,181.72,6.81,246.17,3.84A7.61,7.61,0,0,0,249,3.52Z" transform="translate(-2.72 -3.52)"/>
    <path class="cls-1" d="M249,3.52a7.61,7.61,0,0,1-2.85.32C181.72,6.81,126,30.49,79.65,75.29c-35.8,34.58-59,76.5-70.21,125a257.78,257.78,0,0,0-6.19,57.54C4.1,316.92,22.86,369.6,60,415.55A251.55,251.55,0,0,0,246,508.32a7.86,7.86,0,0,1,3.05.3H2.72V3.52Z" transform="translate(-2.72 -3.52)"/>
    <path class="cls-2" d="M276.86,208h74c2.83,0,2.54-.36,2.54,2.54q0,18.13,0,36.28c0,3,.4,2.68-2.6,2.68H214.39c-3.13,0-2.7-.44-2.71,2.76,0,7.12,0,14.24,0,21.36,0,.48,0,1,0,1.45s.24.89.85.89h1.87c34.62,0,69.24.12,103.87-.05a34.39,34.39,0,0,1,33.87,27.9c.82,4.24.58,8.54.58,12.82q0,17.5,0,35a34,34,0,0,1-26.15,33.17,32.58,32.58,0,0,1-7.8.94H172.37c-2.31,0-2.27.27-2.27-2.21q0-18.35,0-36.7c0-.41,0-.83,0-1.24,0-.68.25-1,1-1s1.25,0,1.87,0H308.73c3.32,0,2.83.33,2.84-2.88q0-10.79,0-21.56c0-2.44.23-2.24-2.22-2.24H222.07c-6.36,0-12.72.11-19.08,0-13.26-.27-23-6.37-29.25-18.06a30.76,30.76,0,0,1-3.4-14.38,61.84,61.84,0,0,1,0-7.46c.53-4.44.05-8.86.16-13.29s0-9,0-13.47,0-9,0-13.48a30.26,30.26,0,0,1,24-28.92,47,47,0,0,1,8.85-.84Z" transform="translate(-2.72 -3.52)"/>
    <path class="cls-3" d="M158.38,107.07a59.94,59.94,0,0,1,6.18-3.9,184.27,184.27,0,0,1,50-18.78,189.82,189.82,0,0,1,136,21.65c2.47,1.44,2.47,1.45.5,3.42q-7.84,7.85-15.69,15.68c-1.87,1.86-1.36,1.69-3.37.49a145.64,145.64,0,0,0-152,.89c-.35.22-.72.42-1.06.66a.75.75,0,0,1-1.1-.08c-.14-.15-.29-.29-.44-.43L158.76,107.9A.9.9,0,0,1,158.38,107.07Z" transform="translate(-2.72 -3.52)"/>
    <path class="cls-3" d="M190,138.94c36.35-23.26,89.62-26.23,132.23-1,.07.57-.43.79-.74,1.1q-8.26,8.29-16.55,16.57c-1.24,1.24-1.26,1.24-3,.42a99.76,99.76,0,0,0-33.1-9.36,102.38,102.38,0,0,0-58,10.7,5.63,5.63,0,0,0-.73.39c-.71.51-1.22.29-1.78-.3-1.24-1.3-2.53-2.55-3.8-3.82q-6.6-6.59-13.18-13.19A5.14,5.14,0,0,1,190,138.94Z" transform="translate(-2.72 -3.52)"/>
    <path class="cls-3" d="M220.91,169.83a87.28,87.28,0,0,1,70.74-1.35c-.07.8-.61,1.06-1,1.43-5.07,5.1-10.18,10.15-15.21,15.28a3.1,3.1,0,0,1-3.27.91c-10.86-2.15-21.68-2.16-32.37,1.12a1.84,1.84,0,0,1-2.2-.42c-5.34-5.41-10.73-10.77-16.1-16.15A7.21,7.21,0,0,1,220.91,169.83Z" transform="translate(-2.72 -3.52)"/>
    <path class="cls-3" d="M149.83,112.68a12.86,12.86,0,0,1-2.46,2.64.52.52,0,0,1-.73,0,.5.5,0,0,1,.13-.72A14.15,14.15,0,0,1,149.83,112.68Z" transform="translate(-2.72 -3.52)"/>
  </g>
</svg>
